<svg width="128" height="128" viewBox="0 0 128 128" fill="none" xmlns="http://www.w3.org/2000/svg">
    <path fill-rule="evenodd" clip-rule="evenodd"
        d="M64 120C94.9279 120 120 94.9279 120 64C120 33.0721 94.9279 8 64 8C33.0721 8 8 33.0721 8 64C8 94.9279 33.0721 120 64 120ZM104 64C104 86.0914 86.0914 104 64 104C41.9086 104 24 86.0914 24 64C24 41.9086 41.9086 24 64 24C86.0914 24 104 41.9086 104 64ZM64 80C77.2548 80 88 69.2548 88 56C88 42.7452 77.2548 32 64 32C50.7452 32 40 42.7452 40 56C40 69.2548 50.7452 80 64 80ZM64 56C68.4183 56 72 52.4183 72 48C72 43.5817 68.4183 40 64 40C59.5817 40 56 43.5817 56 48C56 52.4183 59.5817 56 64 56Z"
        fill="currentColor" />

    <style>
        path { fill: #111; }
        @media (prefers-color-scheme: dark) {
        path { fill: #fff; }
        }
    </style>

</svg>