<svg width="24" height="24" viewBox="0 0 24 24" fill="none" xmlns="http://www.w3.org/2000/svg">
<path d="M11.427 4.6808L7.16703 7.4708C7.01703 7.5908 6.80703 7.6508 6.59703 7.6508H2.72703C2.15703 7.6508 1.70703 8.1008 1.70703 8.6708V15.3908C1.70703 15.9608 2.15703 16.4108 2.72703 16.4108H6.59703C6.80703 16.4108 6.98703 16.4708 7.16703 16.5908L11.427 19.3808C12.087 19.8308 12.987 19.3508 12.987 18.5408V5.5208C12.987 4.7108 12.087 4.2308 11.427 4.6808Z" fill="#FA1919"/>
<path d="M20.187 11.9409L21.807 10.3209C22.377 9.7509 22.377 8.8509 21.807 8.3109C21.237 7.7409 20.337 7.7409 19.797 8.3109L18.177 9.9309L16.557 8.3109C15.987 7.7409 15.087 7.7409 14.547 8.3109C13.977 8.8809 13.977 9.7809 14.547 10.3209L16.167 11.9409L14.547 13.5609C13.977 14.1309 13.977 15.0309 14.547 15.5709C14.817 15.8409 15.177 15.9909 15.567 15.9909C15.957 15.9909 16.287 15.8409 16.587 15.5709L18.207 13.9509L19.827 15.5709C20.097 15.8409 20.457 15.9909 20.847 15.9909C21.237 15.9909 21.567 15.8409 21.867 15.5709C22.437 15.0009 22.437 14.1009 21.867 13.5609L20.247 11.9409H20.187Z" fill="#FA1919"/>
</svg>
