<svg width="24" height="24" viewBox="0 0 24 24" fill="none" xmlns="http://www.w3.org/2000/svg">
<path d="M16.5918 16.0495C18.8718 13.7695 18.8718 10.0795 16.5918 7.79945C16.0218 7.22945 15.1218 7.22945 14.5818 7.79945C14.0118 8.36945 14.0118 9.26945 14.5818 9.80945C15.7518 10.9795 15.7518 12.8695 14.5818 14.0095C14.0118 14.5795 14.0118 15.4795 14.5818 16.0195C14.8518 16.2895 15.2118 16.4395 15.6018 16.4395C15.9918 16.4395 16.3218 16.2895 16.6218 16.0195H16.5918V16.0495ZM19.3818 18.8395C21.2418 16.9795 22.2618 14.5195 22.2618 11.9095C22.2618 9.29945 21.2418 6.83945 19.3818 4.97945C18.8118 4.40945 17.9118 4.40945 17.3718 4.97945C16.8018 5.54945 16.8018 6.44945 17.3718 6.98945C18.6918 8.30945 19.4118 10.0495 19.4118 11.8795C19.4118 13.7095 18.6918 15.4795 17.3718 16.7695C16.8018 17.3395 16.8018 18.2395 17.3718 18.7795C17.9418 19.3195 18.8418 19.3195 19.3818 18.7795V18.8395Z" fill="#FA1919"/>
<path d="M11.4309 4.67982L7.17094 7.46982C7.02094 7.58982 6.81094 7.64982 6.60094 7.64982H2.73094C2.16094 7.64982 1.71094 8.09982 1.71094 8.66982V15.3898C1.71094 15.9598 2.16094 16.4098 2.73094 16.4098H6.60094C6.81094 16.4098 6.99094 16.4698 7.17094 16.5898L11.4309 19.3798C12.0909 19.8298 12.9909 19.3798 12.9909 18.5398V5.51982C12.9909 4.70982 12.0909 4.22982 11.4309 4.67982Z" fill="#FA1919"/>
</svg>
